<svg width="45" height="27" viewBox="0 0 45 27" fill="none" xmlns="http://www.w3.org/2000/svg">
<path fill-rule="evenodd" clip-rule="evenodd" d="M14.4548 25.7031C14.2806 25.8777 14.0738 26.0162 13.846 26.1107C13.6182 26.2053 13.374 26.2539 13.1274 26.2539C12.8808 26.2539 12.6366 26.2053 12.4088 26.1107C12.1811 26.0162 11.9742 25.8777 11.8 25.7031L0.550833 14.4539C0.376233 14.2798 0.237709 14.0729 0.143192 13.8451C0.0486746 13.6173 2.28882e-05 13.3731 2.28882e-05 13.1265C2.28882e-05 12.8799 0.0486746 12.6357 0.143192 12.408C0.237709 12.1802 0.376233 11.9733 0.550833 11.7991L11.8 0.549952C12.152 0.197903 12.6295 0.000125885 13.1274 0.000125885C13.6253 0.000125885 14.1028 0.197903 14.4548 0.549952C14.8069 0.902 15.0046 1.37948 15.0046 1.87736C15.0046 2.37523 14.8069 2.85271 14.4548 3.20476L4.52929 13.1265L14.4548 23.0483C14.6294 23.2225 14.7679 23.4293 14.8624 23.6571C14.957 23.8849 15.0056 24.1291 15.0056 24.3757C15.0056 24.6223 14.957 24.8665 14.8624 25.0943C14.7679 25.322 14.6294 25.5289 14.4548 25.7031Z" fill="white"/>
<path fill-rule="evenodd" clip-rule="evenodd" d="M45 13.1261C45 13.6234 44.8025 14.1002 44.4509 14.4518C44.0993 14.8034 43.6224 15.001 43.1251 15.001L3.75305 15.001C3.2558 15.001 2.77892 14.8034 2.42732 14.4518C2.07571 14.1002 1.87819 13.6234 1.87819 13.1261C1.87819 12.6289 2.07571 12.152 2.42732 11.8004C2.77892 11.4488 3.2558 11.2513 3.75305 11.2513L43.1251 11.2513C43.6224 11.2513 44.0993 11.4488 44.4509 11.8004C44.8025 12.152 45 12.6289 45 13.1261Z" fill="white"/>
</svg>
