<svg width="30" height="32" viewBox="0 0 30 32" fill="none" xmlns="http://www.w3.org/2000/svg">
<path d="M19.6875 15.7617C19.6875 17.0478 19.1936 18.2811 18.3146 19.1905C17.4355 20.0998 16.2432 20.6107 15 20.6107C13.7568 20.6107 12.5645 20.0998 11.6854 19.1905C10.8064 18.2811 10.3125 17.0478 10.3125 15.7617C10.3125 15.4854 10.3406 15.2154 10.3891 14.9536H8.75V21.414C8.75 21.8633 9.10156 22.227 9.53594 22.227H20.4656C20.6738 22.2266 20.8733 22.1407 21.0204 21.9883C21.1674 21.8359 21.25 21.6293 21.25 21.414V14.9536H19.6109C19.6594 15.2154 19.6875 15.4854 19.6875 15.7617ZM15 18.9944C15.4105 18.9943 15.8169 18.9105 16.1961 18.7479C16.5753 18.5853 16.9199 18.3471 17.21 18.0468C17.5002 17.7464 17.7304 17.3899 17.8874 16.9976C18.0444 16.6052 18.1251 16.1848 18.125 15.7601C18.1249 15.3355 18.0439 14.9151 17.8868 14.5228C17.7296 14.1306 17.4993 13.7742 17.2089 13.474C16.9186 13.1738 16.574 12.9357 16.1947 12.7733C15.8154 12.6109 15.4089 12.5274 14.9984 12.5275C14.1694 12.5277 13.3745 12.8686 12.7884 13.4751C12.2024 14.0817 11.8732 14.9042 11.8734 15.7617C11.8736 16.6193 12.2032 17.4417 12.7895 18.0479C13.3759 18.6541 14.171 18.9946 15 18.9944ZM18.75 12.3675H20.6234C20.7479 12.3675 20.8673 12.3164 20.9554 12.2256C21.0436 12.1347 21.0933 12.0113 21.0938 11.8826V9.94463C21.0938 9.8156 21.0442 9.69185 20.956 9.60061C20.8678 9.50937 20.7482 9.45812 20.6234 9.45812H18.75C18.6253 9.45812 18.5056 9.50937 18.4174 9.60061C18.3292 9.69185 18.2797 9.8156 18.2797 9.94463V11.8826C18.2812 12.1493 18.4922 12.3675 18.75 12.3675ZM15 0.245117C11.0218 0.245117 7.20644 1.8799 4.3934 4.78983C1.58035 7.69977 0 11.6465 0 15.7617C0 19.877 1.58035 23.8237 4.3934 26.7337C7.20644 29.6436 11.0218 31.2784 15 31.2784C16.9698 31.2784 18.9204 30.877 20.7403 30.0972C22.5601 29.3175 24.2137 28.1745 25.6066 26.7337C26.9995 25.2928 28.1044 23.5823 28.8582 21.6997C29.612 19.8171 30 17.7994 30 15.7617C30 13.7241 29.612 11.7064 28.8582 9.82379C28.1044 7.94123 26.9995 6.23068 25.6066 4.78983C24.2137 3.34898 22.5601 2.20603 20.7403 1.42625C18.9204 0.646467 16.9698 0.245117 15 0.245117ZM22.8125 22.0476C22.8125 23.0352 22.0313 23.8433 21.0766 23.8433H8.92344C7.96875 23.8433 7.1875 23.0352 7.1875 22.0476V9.4759C7.1875 8.48833 7.96875 7.68017 8.92344 7.68017H21.0766C22.0313 7.68017 22.8125 8.48833 22.8125 9.4759V22.0476Z" fill="#151515"/>
</svg>
