<svg width="112" height="29" viewBox="0 0 112 29" fill="none" xmlns="http://www.w3.org/2000/svg">
<path d="M14.3333 28.7037C10.6498 28.7037 7.11709 27.2404 4.51242 24.6357C1.90775 22.031 0.444458 18.4984 0.444458 14.8148C0.444458 11.1312 1.90775 7.59854 4.51242 4.99387C7.11709 2.3892 10.6498 0.925903 14.3333 0.925903C18.0169 0.925903 21.5496 2.3892 24.1543 4.99387C26.7589 7.59854 28.2222 11.1312 28.2222 14.8148C28.2222 18.4984 26.7589 22.031 24.1543 24.6357C21.5496 27.2404 18.0169 28.7037 14.3333 28.7037ZM56 28.7037C52.3165 28.7037 48.7838 27.2404 46.1791 24.6357C43.5744 22.031 42.1111 18.4984 42.1111 14.8148C42.1111 11.1312 43.5744 7.59854 46.1791 4.99387C48.7838 2.3892 52.3165 0.925903 56 0.925903C59.6836 0.925903 63.2163 2.3892 65.8209 4.99387C68.4256 7.59854 69.8889 11.1312 69.8889 14.8148C69.8889 18.4984 68.4256 22.031 65.8209 24.6357C63.2163 27.2404 59.6836 28.7037 56 28.7037ZM97.6667 28.7037C93.9831 28.7037 90.4504 27.2404 87.8458 24.6357C85.2411 22.031 83.7778 18.4984 83.7778 14.8148C83.7778 11.1312 85.2411 7.59854 87.8458 4.99387C90.4504 2.3892 93.9831 0.925903 97.6667 0.925903C101.35 0.925903 104.883 2.3892 107.488 4.99387C110.092 7.59854 111.556 11.1312 111.556 14.8148C111.556 18.4984 110.092 22.031 107.488 24.6357C104.883 27.2404 101.35 28.7037 97.6667 28.7037Z" fill="#9368A9"/>
</svg>
