<svg width="112" height="112" viewBox="0 0 112 112" fill="none" xmlns="http://www.w3.org/2000/svg">
<path d="M56 0.444458C48.7044 0.444458 41.4801 1.88145 34.7398 4.67337C27.9995 7.4653 21.8751 11.5575 16.7163 16.7163C6.29762 27.135 0.444458 41.2658 0.444458 56C0.444458 70.7343 6.29762 84.865 16.7163 95.2837C21.8751 100.443 27.9995 104.535 34.7398 107.327C41.4801 110.119 48.7044 111.556 56 111.556C70.7343 111.556 84.865 105.702 95.2837 95.2837C105.702 84.865 111.556 70.7343 111.556 56C111.556 48.7044 110.119 41.4801 107.327 34.7398C104.535 27.9995 100.443 21.8751 95.2837 16.7163C90.1249 11.5575 84.0005 7.4653 77.2602 4.67337C70.5199 1.88145 63.2957 0.444458 56 0.444458ZM79.3334 79.3334L50.4445 61.5556V28.2222H58.7778V57.1111L83.7778 72.1111L79.3334 79.3334Z" fill="#9368A9"/>
</svg>
