<svg width="30" height="32" viewBox="0 0 30 32" fill="none" xmlns="http://www.w3.org/2000/svg">
<path d="M15 0.245117C6.71562 0.245117 0 7.19204 0 15.7617C0 24.3315 6.71562 31.2784 15 31.2784C23.2844 31.2784 30 24.3315 30 15.7617C30 7.19204 23.2844 0.245117 15 0.245117ZM20.7687 17.7514C20.7687 17.7514 22.0953 19.1059 22.4219 19.7347C22.4312 19.7476 22.4359 19.7605 22.4391 19.767C22.5719 19.9981 22.6031 20.1775 22.5375 20.3117C22.4281 20.5347 22.0531 20.6446 21.925 20.6543H19.5812C19.4187 20.6543 19.0781 20.6107 18.6656 20.3165C18.3484 20.087 18.0359 19.7104 17.7312 19.3435C17.2766 18.7972 16.8828 18.3252 16.4859 18.3252C16.4355 18.3251 16.3854 18.3333 16.3375 18.3495C16.0375 18.4497 15.6531 18.8926 15.6531 20.0725C15.6531 20.441 15.3719 20.6527 15.1734 20.6527H14.1C13.7344 20.6527 11.8297 20.5202 10.1422 18.6792C8.07656 16.4244 6.21719 11.902 6.20156 11.86C6.08437 11.5674 6.32656 11.4106 6.59062 11.4106H8.95781C9.27344 11.4106 9.37656 11.6094 9.44844 11.7856C9.53281 11.9909 9.84219 12.8071 10.35 13.7252C11.1734 15.2219 11.6781 15.8296 12.0828 15.8296C12.1587 15.8287 12.2332 15.8087 12.3 15.7714C12.8281 15.4676 12.7297 13.5199 12.7062 13.1158C12.7062 13.0399 12.7047 12.2446 12.4344 11.8632C12.2406 11.5868 11.9109 11.4817 11.7109 11.443C11.7919 11.3274 11.8985 11.2337 12.0219 11.1698C12.3844 10.9823 13.0375 10.9548 13.6859 10.9548H14.0469C14.75 10.9645 14.9313 11.0114 15.1859 11.0777C15.7016 11.2054 15.7125 11.5496 15.6672 12.7279C15.6531 13.0625 15.6391 13.4407 15.6391 13.8868C15.6391 13.9838 15.6344 14.0872 15.6344 14.1972C15.6187 14.7968 15.6 15.4773 16.0094 15.7569C16.0628 15.7915 16.1245 15.81 16.1875 15.8102C16.3297 15.8102 16.7578 15.8102 17.9172 13.7527C18.2747 13.0904 18.5855 12.4022 18.8469 11.6935C18.8703 11.6515 18.9391 11.5222 19.0203 11.472C19.0803 11.4404 19.1468 11.4243 19.2141 11.4252H21.9969C22.3 11.4252 22.5078 11.472 22.5469 11.5933C22.6156 11.7856 22.5344 12.3723 21.2641 14.1519L20.6969 14.9261C19.5453 16.4875 19.5453 16.5667 20.7687 17.7514Z" fill="#151515"/>
</svg>
